<svg width="1642" height="447" viewBox="0 0 1642 447" fill="none" xmlns="http://www.w3.org/2000/svg">
<g clip-path="url(#clip0_380_623)">
<path d="M263.431 334.963L147.521 314.699L210.34 71.7345L50.0518 30.396L57.9547 0L248.841 49.0388L186.631 289.572L268.903 303.96L263.431 334.963Z" fill="black"/>
<path d="M63.0209 259.379C53.2942 259.379 42.149 256.947 29.18 249.855C-14.9954 226.146 3.4448 153.196 5.67384 144.888L35.8672 153.196L20.6692 148.94L35.8672 152.993C30.8012 171.434 26.3431 212.569 43.7701 222.093C61.1971 231.415 69.708 226.957 72.5449 225.538C93.0116 215.001 102.536 171.839 104.157 157.654L135.363 161.302C134.553 168.597 125.839 233.239 87.135 253.3C81.0558 256.34 72.9502 259.176 62.8182 259.176L63.0209 259.379Z" fill="black"/>
<path d="M326.25 277.616C316.523 277.616 305.378 275.185 292.409 268.092C248.234 244.384 266.876 171.433 269.105 163.125L299.299 171.433L284.101 167.178L299.299 171.231C294.233 189.671 289.775 230.807 307.202 240.331C324.629 249.652 333.14 245.194 335.977 243.776C356.443 233.238 365.967 190.076 367.588 175.891L398.795 179.539C397.984 186.834 389.271 251.476 350.567 271.537C344.487 274.577 336.382 277.414 326.25 277.414V277.616Z" fill="black"/>
<path d="M191.697 446.01C98.0775 446.01 43.5674 391.095 42.7568 390.285L65.2498 368.399C69.3026 372.655 167.786 469.922 333.545 370.426L349.756 397.377C289.369 433.649 236.075 446.01 191.697 446.01Z" fill="black"/>
<path d="M541.859 387.244C549.964 386.839 556.246 386.434 560.907 386.028C565.568 385.623 570.026 384.813 574.078 383.394C578.131 382.178 580.968 380.557 582.995 378.936C584.818 377.315 586.439 374.681 587.858 371.033C589.276 367.588 590.087 363.738 590.492 359.685C590.897 355.632 591.1 349.959 591.1 343.069V111.046C591.1 103.954 591.1 98.4827 590.492 94.4299C590.087 90.3771 589.276 86.5269 587.858 83.0821C586.439 79.6372 584.818 77.0029 582.995 75.1791C581.171 73.558 578.131 71.9369 574.078 70.721C570.026 69.5052 565.77 68.6946 560.907 68.0867C556.246 67.6814 549.762 67.2762 541.859 66.8709V48.4307H840.752L845.616 139.011H819.475C815.017 111.046 807.519 92.6061 796.982 83.69C786.445 74.7738 766.383 70.5184 737.001 70.5184H645.61V212.366H713.292C722.816 212.366 730.516 212.366 736.19 211.758C741.864 211.353 747.133 210.542 751.996 209.124C756.859 207.705 760.507 205.882 762.939 204.058C765.37 202.032 767.599 198.992 769.626 194.534C771.652 190.076 773.071 185.415 773.881 180.349C774.692 175.283 775.502 168.596 776.515 159.883H800.022V286.938H776.515C775.705 278.427 774.894 271.537 773.881 266.471C773.071 261.405 771.652 256.744 769.423 252.286C767.397 247.828 765.168 244.789 762.533 242.762C760.102 240.736 756.454 238.912 751.591 237.494C746.727 236.075 741.459 235.062 735.785 234.859C730.111 234.454 722.613 234.251 713.292 234.251H645.61V342.461C645.61 349.148 645.813 354.417 646.218 358.672C646.623 362.725 647.637 366.575 649.46 370.223C651.081 373.87 653.31 376.504 655.54 378.328C657.971 380.152 661.416 381.773 666.279 382.989C671.143 384.407 676.411 385.218 682.085 385.826C687.962 386.434 695.46 386.839 704.578 387.042V405.482H541.656V387.042L541.859 387.244Z" fill="black"/>
<path d="M866.082 390.081C874.796 389.474 881.28 388.866 885.738 387.852C890.196 386.839 894.047 384.813 897.491 381.571C900.936 378.328 903.165 374.073 904.178 368.399C905.192 362.725 905.8 355.025 905.8 345.095V101.117C905.8 87.1351 903.571 77.8136 899.112 73.5582C894.654 69.1001 885.13 67.0737 870.54 67.0737V53.4969L939.235 33.0303H951.799V345.501C951.799 355.43 952.407 363.13 953.42 368.804C954.433 374.276 956.662 378.734 960.107 381.976C963.552 385.218 967.402 387.245 971.86 388.258C976.318 389.271 982.803 390.081 991.516 390.487V406.09H866.285V390.487L866.082 390.081Z" fill="black"/>
<path d="M1221.31 377.112C1199.22 401.226 1169.84 413.182 1133.16 413.182C1096.48 413.182 1066.9 401.226 1045.01 377.517C1023.13 353.809 1011.98 321.994 1011.98 282.277C1011.98 242.559 1022.93 210.542 1045.01 186.428C1067.1 162.314 1096.48 150.358 1133.16 150.358C1169.84 150.358 1199.42 162.314 1221.31 186.023C1243.4 209.732 1254.34 241.546 1254.34 281.264C1254.34 320.981 1243.4 352.998 1221.31 377.112ZM1066.9 271.334C1066.9 292.206 1069.53 311.457 1074.6 329.289C1079.66 347.122 1087.77 361.914 1098.92 373.465C1110.06 385.015 1123.03 391.094 1138.23 391.094C1145.72 391.094 1153.02 389.473 1159.91 386.028C1166.8 382.583 1173.28 377.315 1179.36 370.02C1185.44 362.725 1190.31 352.39 1193.75 339.016C1197.4 325.642 1199.22 310.038 1199.22 292.409C1199.22 271.537 1196.59 252.286 1191.52 234.454C1186.46 216.622 1178.35 201.829 1167.2 190.278C1156.06 178.525 1143.09 172.649 1127.89 172.649C1120.39 172.649 1113.1 174.27 1106.21 177.715C1099.32 181.16 1092.84 186.428 1086.76 193.723C1080.68 201.018 1075.81 211.353 1072.37 224.727C1068.92 238.101 1066.9 253.705 1066.9 271.334Z" fill="black"/>
<path d="M1428.2 210.34C1423.14 196.763 1418.48 187.239 1413.82 181.768C1409.16 176.297 1402.47 173.257 1394.16 172.649V156.641H1502.98V172.649C1493.86 172.649 1487.38 174.676 1483.32 178.12C1479.27 181.565 1477.24 186.631 1477.24 193.318C1477.24 200.411 1479.88 211.353 1484.94 226.349L1529.12 354.417L1581.2 215.406C1584.85 205.072 1586.67 196.763 1586.67 191.089C1586.67 184.605 1584.44 179.944 1579.78 177.31C1575.12 174.676 1568.03 173.257 1558.3 172.852V156.843H1641.38V172.852C1634.9 173.257 1629.22 176.499 1624.16 182.173C1619.09 187.847 1613.82 198.587 1607.74 214.19L1534.59 407.509H1502.98L1450.5 269.511L1395.38 407.509H1363.77L1293.04 219.459C1285.95 200.411 1280.48 188.05 1276.43 182.173C1272.37 176.297 1266.5 173.257 1259 172.649V156.641H1363.36V172.649C1346.34 173.662 1337.62 181.16 1337.62 195.142C1337.62 199.398 1338.64 204.464 1340.66 210.34L1390.72 356.241L1438.34 237.291L1428.41 210.34H1428.2Z" fill="black"/>
</g>
<defs>
<clipPath id="clip0_380_623">
<rect width="1641.18" height="446.01" fill="white"/>
</clipPath>
</defs>
</svg>
